<?xml version="1.0" encoding="UTF-8" standalone="no"?>
<!-- Created with Inkscape (http://www.inkscape.org/) -->

<svg
   xmlns:dc="http://purl.org/dc/elements/1.1/"
   xmlns:cc="http://creativecommons.org/ns#"
   xmlns:rdf="http://www.w3.org/1999/02/22-rdf-syntax-ns#"
   xmlns:svg="http://www.w3.org/2000/svg"
   xmlns="http://www.w3.org/2000/svg"
   xmlns:xlink="http://www.w3.org/1999/xlink"
   xmlns:sodipodi="http://sodipodi.sourceforge.net/DTD/sodipodi-0.dtd"
   xmlns:inkscape="http://www.inkscape.org/namespaces/inkscape"
   width="16px"
   height="16px"
   viewBox="0 0 16 16"
   version="1.1"
   id="SVGRoot"
   sodipodi:docname="logo.svg"
   inkscape:export-filename="/home/samuel/projects/Hide-my-Name/icon.png"
   inkscape:export-xdpi="240.00002"
   inkscape:export-ydpi="240.00002"
   inkscape:version="0.92.3 (2405546, 2018-03-11)">
  <sodipodi:namedview
     id="base"
     pagecolor="#ffffff"
     bordercolor="#666666"
     borderopacity="1.0"
     inkscape:pageopacity="0.0"
     inkscape:pageshadow="2"
     inkscape:zoom="32"
     inkscape:cx="13.076109"
     inkscape:cy="6.5679046"
     inkscape:document-units="px"
     inkscape:current-layer="layer1"
     showgrid="false"
     inkscape:window-width="1920"
     inkscape:window-height="1151"
     inkscape:window-x="0"
     inkscape:window-y="0"
     inkscape:window-maximized="1"
     inkscape:grid-bbox="true" />
  <defs
     id="defs815">
    <linearGradient
       inkscape:collect="always"
       id="linearGradient1427">
      <stop
         style="stop-color:#ffffff;stop-opacity:1"
         offset="0"
         id="stop1423" />
      <stop
         style="stop-color:#ffffff;stop-opacity:0"
         offset="1"
         id="stop1425" />
    </linearGradient>
    <linearGradient
       inkscape:collect="always"
       xlink:href="#linearGradient1427"
       id="linearGradient1429"
       x1="7.744381"
       y1="0.90002763"
       x2="7.744381"
       y2="8.9280777"
       gradientUnits="userSpaceOnUse"
       gradientTransform="matrix(1.1422131,0,0,1.1422131,-1.1377044,-1.1377046)" />
  </defs>
  <metadata
     id="metadata818">
    <rdf:RDF>
      <cc:Work
         rdf:about="">
        <dc:format>image/svg+xml</dc:format>
        <dc:type
           rdf:resource="http://purl.org/dc/dcmitype/StillImage" />
      </cc:Work>
    </rdf:RDF>
  </metadata>
  <g
     id="layer1"
     inkscape:groupmode="layer"
     inkscape:label="Layer 1">
    <path
       style="fill:#808080;fill-opacity:1;fill-rule:evenodd;stroke:none;stroke-width:0.85934085px;stroke-linecap:butt;stroke-linejoin:miter;stroke-opacity:1"
       d="M 8.0000001,2.8980737 A 8.5396993,8.5396993 0 0 0 0.19110087,7.9957839 8.5396993,8.5396993 0 0 0 8.0000001,13.101926 8.5396993,8.5396993 0 0 0 15.808899,8.0042167 8.5396993,8.5396993 0 0 0 8.0000001,2.8980737 Z m 0,0.828536 c 2.3522449,0 4.2733899,1.9211462 4.2733899,4.2733906 0,2.3522447 -1.921145,4.2733897 -4.2733899,4.2733897 -2.3522444,0 -4.2733906,-1.921145 -4.2733906,-4.2733897 0,-2.3522444 1.9211462,-4.2733906 4.2733906,-4.2733906 z m 0,1.2733734 c -1.6643394,0 -3.0000172,1.3356779 -3.0000172,3.0000172 0,0.5821918 0.1716079,1.1183022 0.4553786,1.5769592 L 9.5769592,5.4553617 C 9.1183023,5.171591 8.5821919,4.9999831 8.0000001,4.9999831 Z M 10.544639,6.4230412 6.423041,10.544639 c 0.4586569,0.283771 0.9947673,0.455378 1.5769591,0.455378 1.6643394,0 3.0000169,-1.3356773 3.0000169,-3.0000167 0,-0.5821918 -0.171607,-1.1183021 -0.455378,-1.5769591 z"
       id="path1381"
       inkscape:connector-curvature="0" />
  </g>
</svg>
